<?xml version="1.0" standalone="no"?>
<!DOCTYPE svg PUBLIC "-//W3C//DTD SVG 20010904//EN"
 "http://www.w3.org/TR/2001/REC-SVG-20010904/DTD/svg10.dtd">
<svg version="1.0" xmlns="http://www.w3.org/2000/svg"
 width="512.000000pt" height="512.000000pt" viewBox="0 0 512.000000 512.000000"
 preserveAspectRatio="xMidYMid meet">

<g transform="translate(0.000000,512.000000) scale(0.100000,-0.100000)"
fill="#000000" stroke="none">
<path d="M890 4782 c-26 -13 -98 -101 -287 -352 -139 -184 -259 -349 -268
-367 -47 -97 18 -296 134 -406 156 -149 371 -178 561 -76 l56 30 71 -69 c238
-230 604 -242 857 -28 l67 57 56 -50 c235 -209 594 -212 837 -7 l67 57 56 -50
c246 -219 626 -211 864 19 l73 71 56 -30 c31 -17 83 -37 115 -46 267 -69 545
117 587 393 6 37 8 84 4 103 -10 53 -518 728 -566 751 -30 15 -64 18 -228 18
-179 0 -193 -1 -188 -17 67 -224 266 -938 266 -953 0 -31 -44 -70 -78 -70 -62
0 -63 2 -215 535 l-143 500 -330 3 -331 2 68 -472 c38 -260 68 -483 69 -496 0
-13 -11 -34 -25 -47 -31 -32 -78 -33 -108 -2 -21 20 -29 67 -91 502 -37 264
-70 488 -72 498 -5 16 -26 17 -264 17 -238 0 -259 -1 -264 -17 -2 -10 -35
-234 -72 -498 -62 -435 -70 -482 -91 -502 -30 -31 -77 -30 -108 2 -14 13 -25
34 -25 47 1 13 31 236 69 496 l68 472 -261 -2 -260 -3 -216 -504 c-122 -285
-224 -509 -235 -517 -45 -33 -125 4 -125 58 0 13 88 228 195 478 107 250 198
463 201 473 5 16 -11 17 -253 17 -226 0 -262 -2 -293 -18z"/>
<path d="M990 3390 c-30 -10 -85 -22 -122 -25 l-68 -8 0 -712 0 -713 85 29
c47 16 119 35 160 41 l74 11 3 463 c3 449 4 463 24 490 11 15 33 37 48 48 27
20 39 21 406 21 367 0 379 -1 406 -21 68 -50 69 -53 72 -304 l3 -229 67 30
c101 46 303 113 427 142 224 53 294 59 708 64 514 7 675 -10 906 -93 53 -19
104 -38 114 -41 16 -5 17 18 17 384 l0 390 -65 7 c-35 4 -94 16 -130 27 l-66
20 -33 -29 c-86 -75 -231 -142 -364 -168 -186 -36 -398 5 -559 106 l-63 39
-63 -39 c-146 -92 -339 -134 -511 -112 -112 14 -235 56 -323 112 l-63 39 -62
-39 c-208 -130 -468 -154 -703 -65 -75 28 -199 101 -229 134 -22 25 -24 25
-96 1z"/>
<path d="M2965 2553 c-402 -33 -800 -171 -1121 -389 -138 -94 -215 -84 620
-84 l736 0 0 240 0 240 -97 -2 c-54 -1 -116 -3 -138 -5z"/>
<path d="M3360 2321 l0 -241 660 0 c569 0 660 2 653 14 -4 8 -34 44 -65 79
-156 177 -415 309 -708 363 -53 10 -170 18 -312 21 l-228 6 0 -242z"/>
<path d="M1280 1879 c-288 -46 -340 -60 -460 -120 -224 -112 -390 -313 -466
-565 -25 -82 -27 -103 -28 -271 -1 -168 0 -183 20 -209 49 -66 58 -69 262 -72
l187 -3 11 70 c44 279 321 465 589 396 187 -49 329 -205 359 -396 l10 -69 796
0 796 0 10 69 c30 191 172 347 359 396 236 61 484 -75 565 -310 11 -32 20 -69
20 -82 0 -12 6 -23 12 -23 31 0 386 125 414 146 66 49 65 42 62 577 -2 265 -7
488 -11 495 -7 9 -344 12 -1640 11 l-1632 -1 -235 -39z"/>
<path d="M1205 951 c-92 -24 -173 -90 -215 -176 -34 -69 -35 -198 -2 -265 34
-71 75 -114 144 -151 58 -31 70 -34 148 -33 72 0 93 4 136 26 75 40 107 70
145 140 31 58 34 70 34 148 0 78 -3 90 -34 148 -57 104 -144 160 -260 167 -36
2 -79 1 -96 -4z"/>
<path d="M3765 951 c-92 -24 -173 -90 -215 -176 -34 -69 -35 -198 -2 -265 34
-71 75 -114 144 -151 58 -31 70 -34 148 -33 72 0 93 4 136 26 75 40 107 70
145 140 31 58 34 70 34 148 0 78 -3 90 -34 148 -57 104 -144 160 -260 167 -36
2 -79 1 -96 -4z"/>
</g>
</svg>
