<svg width="26" height="24" viewBox="0 0 26 24" fill="none" xmlns="http://www.w3.org/2000/svg">
<g filter="url(#filter0_i_57_965)">
<path d="M7.93252 0.000195363C8.7283 0.0243967 9.49881 0.163342 10.2453 0.417232H10.3198C10.3704 0.441232 10.4083 0.467758 10.4335 0.491757C10.7127 0.58144 10.9767 0.682491 11.2293 0.821436L11.7093 1.03617C11.8988 1.13722 12.1261 1.32543 12.2525 1.40248C12.3788 1.477 12.5177 1.55406 12.6314 1.64121C14.0347 0.568809 15.7387 -0.0122343 17.4945 0.000195363C18.2915 0.000195363 19.0873 0.112816 19.8439 0.366707C24.5061 1.88247 26.1861 6.99818 24.7828 11.4697C23.987 13.7547 22.686 15.8401 20.982 17.5441C18.5429 19.9062 15.8663 22.003 12.9851 23.8093L12.6693 24L12.3409 23.7966C9.44955 22.003 6.7578 19.9062 4.29595 17.5315C2.60335 15.8275 1.30105 13.7547 0.492644 11.4697C-0.9347 6.99818 0.745272 1.88247 5.45804 0.340181C5.82435 0.213867 6.20202 0.125448 6.58096 0.0761853H6.73254C7.08748 0.0243966 7.4399 0.000195363 7.79358 0.000195363H7.93252ZM19.1871 3.99191C18.6692 3.81381 18.1008 4.09296 17.9113 4.62348C17.7345 5.154 18.0124 5.73504 18.5429 5.92325C19.3525 6.2264 19.8944 7.02344 19.8944 7.90637V7.94553C19.8704 8.23479 19.9576 8.51394 20.1344 8.72867C20.3113 8.94341 20.5765 9.06846 20.8544 9.09498C21.3723 9.08109 21.8144 8.66552 21.8523 8.13374V7.98342C21.8902 6.21377 20.8178 4.61085 19.1871 3.99191Z" fill="#C9C9C9"/>
</g>
<defs>
<filter id="filter0_i_57_965" x="0" y="0" width="25.263" height="28" filterUnits="userSpaceOnUse" color-interpolation-filters="sRGB">
<feFlood flood-opacity="0" result="BackgroundImageFix"/>
<feBlend mode="normal" in="SourceGraphic" in2="BackgroundImageFix" result="shape"/>
<feColorMatrix in="SourceAlpha" type="matrix" values="0 0 0 0 0 0 0 0 0 0 0 0 0 0 0 0 0 0 127 0" result="hardAlpha"/>
<feOffset dy="4"/>
<feGaussianBlur stdDeviation="2"/>
<feComposite in2="hardAlpha" operator="arithmetic" k2="-1" k3="1"/>
<feColorMatrix type="matrix" values="0 0 0 0 0 0 0 0 0 0 0 0 0 0 0 0 0 0 0.25 0"/>
<feBlend mode="normal" in2="shape" result="effect1_innerShadow_57_965"/>
</filter>
</defs>
</svg>
