<svg xmlns="http://www.w3.org/2000/svg" width="82.779" height="82.75" viewBox="0 0 82.779 82.75">
  <g id="Icon_ionic-ios-images" data-name="Icon ionic-ios-images" transform="translate(0)">
    <path id="Path_200" data-name="Path 200" d="M1493.755,652.407a.876.876,0,0,0-1.423-.129l-16.977,22.574a.865.865,0,0,0,.592,1.422l29.76,2.586a.878.878,0,0,0,.831-1.312Z" transform="translate(-1451.209 -621.514)" fill="#219ebc"/>
    <path id="Path_201" data-name="Path 201" d="M1533.649,672.138a.876.876,0,0,0-1.422-.129l-4.582,4.636a.866.866,0,0,0-.092,1l4.693,9.143a.862.862,0,0,0,.685.425l8.294.721a.879.879,0,0,0,.832-1.313Z" transform="translate(-1471.724 -629.256)" fill="#219ebc"/>
    <path id="Path_202" data-name="Path 202" d="M1538.1,654.708a4.4,4.4,0,1,0-.834-.071A4.37,4.37,0,0,0,1538.1,654.708Z" transform="translate(-1474.163 -619.159)" fill="#219ebc"/>
    <path id="Path_203" data-name="Path 203" d="M1513.932,619.827l-12.155-1.053-1.128-12.377a4.99,4.99,0,0,0-5.411-4.53l-.038,0-54.885,4.951a5.011,5.011,0,0,0-4.545,5.431l4.951,54.774a4.99,4.99,0,0,0,5.412,4.529l.038,0,2.9-.258-.277,3.085a4.994,4.994,0,0,0,4.542,5.41l.021,0,54.922,4.785a5.011,5.011,0,0,0,5.431-4.545l4.8-54.793A5.034,5.034,0,0,0,1513.932,619.827Zm-67.909,31.664a1.272,1.272,0,0,1-1.367-1.127l-3.326-36.947a1.244,1.244,0,0,1,1.127-1.349l51.579-4.636a1.271,1.271,0,0,1,1.367,1.127l.887,9.754-37.261-3.27a5.011,5.011,0,0,0-5.431,4.545l-2.753,31.461Zm66.911-25.05-3.233,36.948a1.258,1.258,0,0,1-1.348,1.145l-3.436-.3-48.161-4.195a1.258,1.258,0,0,1-1.145-1.348l.7-8.11,2.531-28.837a1.258,1.258,0,0,1,1.348-1.145l36.576,3.2,5.487.481,9.532.831a1.207,1.207,0,0,1,1.152,1.258C1512.938,626.393,1512.937,626.417,1512.934,626.441Z" transform="translate(-1435.75 -601.847)" fill="#219ebc"/>
  </g>
</svg>
