<svg width="24" height="24" viewBox="0 0 24 24" fill="none" xmlns="http://www.w3.org/2000/svg">
<g filter="url(#filter0_i_57_962)">
<path d="M23.7719 12.9783C23.8583 13.0269 23.8756 13.1299 23.8791 13.1692L23.8799 13.1849L23.7839 19.3823C23.7839 21.8544 21.8684 23.8704 19.4565 23.994L19.2216 24H4.76638C2.32391 24 0.332135 22.0613 0.210034 19.6201L0.204102 19.3823L0.12006 13.1849C0.12006 13.1849 0.12006 13.039 0.228114 12.9783C0.324162 12.9175 0.444222 12.9904 0.456228 13.0026C2.88144 14.6309 5.7989 15.7124 8.86043 16.1621C9.29265 16.2228 9.72486 15.9433 9.84492 15.5059C10.0925 14.5717 10.8572 13.9366 11.7927 13.8608L11.982 13.8532H12.018C13.0385 13.8532 13.8909 14.5094 14.1551 15.5059C14.2751 15.9433 14.7074 16.2228 15.1396 16.1621C18.2011 15.7124 21.1186 14.6309 23.5438 13.0026C23.5438 13.0026 23.5678 12.9904 23.5918 12.9783C23.6398 12.954 23.7119 12.9418 23.7719 12.9783ZM11.994 15.5909C11.5428 15.5909 11.1622 15.9381 11.1019 16.3797L11.0935 16.5023V18.0699C11.0935 18.5803 11.5018 18.9813 11.994 18.9813C12.4562 18.9813 12.8277 18.6443 12.8864 18.1951L12.8944 18.0699V16.5023C12.8944 16.0041 12.4982 15.5909 11.994 15.5909ZM13.5428 0C15.3437 0 16.8204 1.37316 17.0485 3.13517H19.4257C21.947 3.13517 24 5.21314 24 7.76502C24 7.76502 23.928 8.84532 23.904 10.3497C23.9016 10.4688 23.8439 10.5855 23.7491 10.6559C23.1716 11.0825 22.6433 11.4349 22.5953 11.4592C20.6023 12.7959 18.2863 13.7364 15.8191 14.2043C15.6582 14.2359 15.4998 14.152 15.4181 14.0086C14.7266 12.8105 13.4347 12.0303 11.994 12.0303C10.5629 12.0303 9.25903 12.802 8.54707 14.0013C8.46423 14.1423 8.30815 14.2237 8.14847 14.1933C5.70165 13.7243 3.38569 12.7849 1.4047 11.4713L0.252126 10.6693C0.156078 10.6086 0.096048 10.4992 0.096048 10.3777C0.06003 9.75793 0 7.76502 0 7.76502C0 5.21314 2.05303 3.13517 4.57429 3.13517H6.93947C7.16758 1.37316 8.64432 0 10.4452 0H13.5428ZM13.5428 1.82278H10.4452C9.64082 1.82278 8.95648 2.38176 8.76438 3.13517H15.2236C15.0315 2.38176 14.3472 1.82278 13.5428 1.82278Z" fill="#C9C9C9"/>
</g>
<defs>
<filter id="filter0_i_57_962" x="0" y="0" width="24" height="28" filterUnits="userSpaceOnUse" color-interpolation-filters="sRGB">
<feFlood flood-opacity="0" result="BackgroundImageFix"/>
<feBlend mode="normal" in="SourceGraphic" in2="BackgroundImageFix" result="shape"/>
<feColorMatrix in="SourceAlpha" type="matrix" values="0 0 0 0 0 0 0 0 0 0 0 0 0 0 0 0 0 0 127 0" result="hardAlpha"/>
<feOffset dy="4"/>
<feGaussianBlur stdDeviation="2"/>
<feComposite in2="hardAlpha" operator="arithmetic" k2="-1" k3="1"/>
<feColorMatrix type="matrix" values="0 0 0 0 0 0 0 0 0 0 0 0 0 0 0 0 0 0 0.25 0"/>
<feBlend mode="normal" in2="shape" result="effect1_innerShadow_57_962"/>
</filter>
</defs>
</svg>
