<?xml version="1.0" standalone="no"?>
<!DOCTYPE svg PUBLIC "-//W3C//DTD SVG 20010904//EN"
 "http://www.w3.org/TR/2001/REC-SVG-20010904/DTD/svg10.dtd">
<svg version="1.0" xmlns="http://www.w3.org/2000/svg"
 width="512.000000pt" height="512.000000pt" viewBox="0 0 512.000000 512.000000"
 preserveAspectRatio="xMidYMid meet">

<g transform="translate(0.000000,512.000000) scale(0.100000,-0.100000)"
fill="#000000" stroke="none">
<path d="M2400 5114 c-709 -65 -1337 -409 -1760 -964 -88 -116 -148 -212 -226
-364 l-72 -140 -39 80 c-26 55 -48 86 -72 102 -65 42 -161 21 -202 -45 -40
-64 -33 -96 76 -353 54 -129 107 -247 118 -263 24 -36 72 -60 119 -60 39 0
507 188 561 225 42 30 60 73 55 135 -3 38 -11 60 -29 79 -58 62 -112 68 -219
24 -40 -17 -75 -28 -77 -26 -8 8 105 220 166 311 90 136 177 239 305 362 668
642 1665 786 2483 357 514 -269 907 -747 1067 -1299 14 -48 33 -99 41 -112 41
-61 139 -82 203 -43 33 20 71 86 72 124 0 31 -60 224 -105 336 -126 313 -300
576 -545 820 -381 382 -841 613 -1380 695 -101 15 -447 27 -540 19z"/>
<path d="M1738 3917 c-87 -30 -171 -88 -224 -155 -23 -30 -117 -196 -208 -370
-135 -256 -174 -322 -202 -342 -50 -36 -119 -131 -144 -198 -36 -96 -41 -204
-38 -805 3 -572 3 -572 26 -630 30 -74 116 -168 185 -202 78 -38 186 -48 456
-43 213 4 242 7 293 27 105 41 179 114 223 221 15 35 20 79 23 203 l4 157 358
0 358 0 4 -162 c3 -150 5 -167 29 -218 57 -120 165 -201 295 -220 89 -12 459
-13 547 0 133 19 239 98 295 218 l27 57 3 649 c2 573 1 656 -14 705 -26 91
-63 153 -134 222 -62 61 -77 86 -198 320 -158 308 -194 372 -238 426 -46 56
-142 119 -221 143 -63 19 -92 20 -752 20 l-686 -1 -67 -22z m1435 -291 c18 -7
44 -26 58 -42 25 -27 203 -353 197 -359 -2 -2 -37 3 -78 10 -540 94 -1165 99
-1663 13 -65 -11 -120 -18 -122 -16 -7 7 167 324 193 352 53 57 33 55 735 56
528 0 654 -3 680 -14z m-218 -640 c331 -37 593 -89 692 -137 30 -15 55 -37 74
-67 l29 -46 0 -252 c0 -154 -4 -264 -11 -281 -14 -38 -56 -81 -101 -104 -36
-18 -75 -19 -1148 -19 -909 0 -1116 2 -1143 13 -18 8 -48 32 -69 54 -52 59
-61 112 -56 362 4 231 10 257 76 311 89 73 440 148 862 184 109 9 663 -3 795
-18z m-1382 -1204 l257 -3 0 -124 c0 -117 -1 -126 -24 -152 l-24 -28 -256 0
c-322 0 -299 -13 -304 180 -2 75 -2 142 1 149 5 12 13 11 49 -2 35 -14 92 -17
301 -20z m2172 -260 c-11 -44 -54 -52 -294 -52 -128 0 -231 4 -247 10 -48 19
-53 35 -54 172 l0 127 258 3 c195 3 267 7 297 18 l40 15 3 -135 c1 -74 0 -145
-3 -158z"/>
<path d="M1630 2669 c-85 -35 -122 -130 -82 -209 49 -97 189 -108 253 -19 32
45 33 125 3 165 -44 59 -119 86 -174 63z"/>
<path d="M2230 2669 c-115 -47 -133 -198 -31 -266 33 -22 41 -23 283 -23 276
0 298 4 339 61 32 45 33 125 3 165 -51 69 -51 69 -322 71 -152 2 -257 -2 -272
-8z"/>
<path d="M3250 2669 c-85 -35 -122 -130 -82 -209 49 -97 189 -108 253 -19 32
45 33 125 3 165 -44 59 -119 86 -174 63z"/>
<path d="M222 2000 c-33 -20 -71 -86 -72 -124 -1 -61 109 -365 190 -526 192
-382 520 -744 880 -972 439 -278 997 -414 1510 -369 850 74 1589 569 1976
1324 l72 141 39 -80 c48 -100 84 -128 159 -122 56 5 93 27 120 72 34 58 25 95
-81 346 -54 129 -107 247 -118 263 -25 37 -73 60 -122 59 -43 -1 -535 -200
-569 -230 -54 -49 -62 -158 -15 -208 58 -62 116 -69 221 -24 39 17 73 28 75
26 8 -8 -106 -221 -165 -309 -91 -137 -173 -235 -294 -353 -507 -495 -1223
-709 -1913 -573 -761 151 -1394 709 -1625 1435 -52 163 -67 193 -109 221 -44
30 -113 31 -159 3z"/>
</g>
</svg>
